<?xml version="1.0" encoding="utf-8"?>
<!-- Generator: Adobe Illustrator 19.1.0, SVG Export Plug-In . SVG Version: 6.00 Build 0)  -->
<svg version="1.1" id="Capa_1" xmlns="http://www.w3.org/2000/svg" xmlns:xlink="http://www.w3.org/1999/xlink" x="0px" y="0px"
	 viewBox="0 0 300 102.1" style="enable-background:new 0 0 300 102.1;" xml:space="preserve">
<style type="text/css">
	.st0{fill:#FF5800;}
	.st1{fill:#1F140F;}
	.st2{fill-rule:evenodd;clip-rule:evenodd;fill:#FF5800;}
	.st3{fill:#FFFFFF;}
	.st4{fill-rule:evenodd;clip-rule:evenodd;fill:#C54C00;}
</style>
<g>
	<g>
		<g>
			<path class="st0" d="M138.3,21.4c-2.1,0-3.8,1.6-3.9,3.7v10.3h-14.7v-10c0-2.2-1.8-3.9-3.9-3.9h-4.1v36.3h4.1
				c2.2,0,3.9-1.8,3.9-3.9V42.1h14.7v12c0.1,2,1.8,3.7,3.9,3.7h4.1V21.4H138.3z"/>
			<path class="st0" d="M166.2,20.6c-11.2,0-17.9,8.4-17.9,19.2c0,10.5,6.6,18.9,17.9,18.9c11.2,0,17.9-8.4,17.9-18.9
				C184.1,29,177.5,20.6,166.2,20.6z M166.2,51.9c-7.2,0-9.9-6.1-9.9-12.2c0-6.4,2.7-12.5,9.9-12.5c7.2,0,9.9,6.1,9.9,12.5
				C176.1,45.8,173.4,51.9,166.2,51.9z"/>
			<path class="st0" d="M220.2,54.7c-0.1-0.8-0.2-1.7-0.3-2.6c-0.1-1.1-0.1-2.2-0.2-3c-0.2-3.7-1.4-7.5-5.3-8.5v-0.1
				c4-1.6,5.7-4.8,5.7-9.1c0-5.5-4.1-10-10.6-10H190v36.3h4.1c2.1,0,3.7-1.6,3.9-3.6V43.6h8c4,0,5.5,1.7,6.1,5.5
				c0.2,1.5,0.3,3.2,0.4,4.8v0c0,0.3,0.1,0.6,0.1,0.8c0.4,1.8,2,3.1,3.8,3.1h4.9C220.7,57,220.4,55.9,220.2,54.7z M206.7,37.9H198
				V27.6h8.7c3.6,0,5.5,1.5,5.5,5C212.2,36.3,210.3,37.9,206.7,37.9z"/>
			<path class="st0" d="M253.9,21.4c-2,0-3.7,1.5-3.9,3.4V44c0,5.4-1.8,7.9-7.5,7.9c-6.5,0-7.5-3.9-7.5-7.9V24.9
				c0-0.5-0.2-0.9-0.4-1.3c-0.6-1.3-2-2.2-3.5-2.2H227V44c0,9.9,5.7,14.6,15.5,14.6c9.7,0,15.5-4.8,15.5-14.6V21.4H253.9z"/>
			<path class="st0" d="M282.9,36.4c-9.1-2.3-10.8-2.7-10.8-5.5c0-3.1,2.9-4.1,5.5-4.1c2.9,0,5.4,0.6,6.5,2.9
				c0.1,0.2,0.2,0.4,0.2,0.5c0.6,1.1,1.7,1.9,3,2h5.2c0-1.7-0.3-3.2-0.8-4.5c-0.4-0.9-0.8-1.7-1.4-2.5c-2.7-3.3-7.3-4.7-12.3-4.7
				c-6.6,0-13.6,3.6-13.6,11c0,6.8,5.4,8.9,10.8,10.3c5.3,1.4,10.8,2.1,10.8,6c0,3.7-4.3,4.5-7.1,4.5c-3.3,0-6.4-1.1-7.5-4v0
				c-0.1-0.1-0.1-0.3-0.2-0.4c0,0,0-0.1-0.1-0.1c-0.3-0.5-0.6-1-1.1-1.4c-0.6-0.4-1.2-0.7-2-0.8h-4.9c0,1.5,0.2,2.9,0.6,4.1
				c0.3,0.9,0.7,1.8,1.2,2.6c2.7,4.3,8.1,6.2,13.7,6.2c9.9,0,15.1-5,15.1-11.6C293.7,38.7,285.5,37.1,282.9,36.4z"/>
		</g>
		<g>
			<path class="st1" d="M116.9,74.9l-0.3-0.1c-1.8-0.4-3.5-0.7-3.5-2.3c0-1.7,1.6-2.3,3-2.3c2.2,0,3.4,1,3.5,2.8l0,0.2h1l0-0.2
				c-0.1-2.4-1.8-3.7-4.5-3.7c-2,0-4,1-4,3.2c0,2.4,2.2,2.8,4,3.2l0.2,0c1.9,0.4,3.6,0.7,3.6,2.5c0,1.9-2,2.5-3.2,2.5
				c-1.4,0-2.6-0.4-3.3-1.1c-0.5-0.5-0.8-1.3-0.7-2.2l0-0.2h-1l0,0.2c0,1.2,0.3,2.2,1,2.9c0.9,0.9,2.2,1.3,3.9,1.3
				c2.1,0,4.2-1,4.2-3.4C120.9,75.7,118.6,75.2,116.9,74.9z"/>
			<polygon class="st1" points="132.4,80 128,69.6 126.7,69.6 126.7,81.3 127.8,81.3 127.8,71.3 131.9,81.3 132.9,81.3 137,71.3 
				137,81.3 138,81.3 138,69.6 136.7,69.6 			"/>
			<path class="st1" d="M147.7,69.6l-4.7,11.8h1.1l1.5-3.7h5.3l1.4,3.7h1.1l-4.7-11.8H147.7z M150.4,76.7h-4.6l2.3-5.9L150.4,76.7z"
				/>
			<path class="st1" d="M166.8,79.2c0-0.4,0-0.8,0-1.1c-0.1-1-0.4-2.1-1.7-2.5c1.2-0.4,2-1.5,2-2.9c0-2-1.3-3.1-3.8-3.1h-4.9v11.8h1
				v-5.2h3.9c2,0,2.4,0.9,2.5,1.9c0,0.4,0,0.8,0,1.2c0,0.8,0,1.5,0.3,2.1l0,0.1h1.2l-0.2-0.3C166.8,80.7,166.8,80,166.8,79.2z
				 M166,72.7c0,2.1-1.7,2.5-2.8,2.5h-3.9v-4.7h3.9C164,70.5,166,70.7,166,72.7z"/>
			<polygon class="st1" points="171.6,70.5 175.7,70.5 175.7,81.3 176.7,81.3 176.7,70.5 180.7,70.5 180.7,69.6 171.6,69.6 			"/>
			<path class="st1" d="M203.8,76.7c-0.1,2.2-1.9,4-3.9,4c-2.7,0-4.6-2.2-4.6-5.2c0-3.1,1.9-5.2,4.6-5.2c1.9,0,3.5,1.2,3.7,2.9
				l0,0.1h1l0-0.2c0,0-0.5-3.8-4.8-3.8c-3.4,0-5.6,2.5-5.6,6.2c0,3.6,2.3,6.2,5.6,6.2c2.6,0,4.7-2.1,5-4.9l0-0.2h-1L203.8,76.7z"/>
			<path class="st1" d="M215.6,69.3c-3.4,0-5.6,2.5-5.6,6.2c0,3.6,2.3,6.2,5.6,6.2c3.3,0,5.6-2.5,5.6-6.2
				C221.2,71.8,218.9,69.3,215.6,69.3z M220.1,75.5c0,3.1-1.9,5.2-4.6,5.2c-2.7,0-4.6-2.2-4.6-5.2c0-3.1,1.9-5.2,4.6-5.2
				C218.3,70.2,220.1,72.4,220.1,75.5z"/>
			<polygon class="st1" points="235,79.8 228,69.6 226.9,69.6 226.9,81.3 227.9,81.3 227.9,71.1 235,81.3 236,81.3 236,69.6 
				235,69.6 			"/>
			<polygon class="st1" points="241,70.5 245,70.5 245,81.3 246.1,81.3 246.1,70.5 250.1,70.5 250.1,69.6 241,69.6 			"/>
			<path class="st1" d="M263.6,79.2c0-0.4,0-0.8,0-1.1c-0.1-1-0.4-2.1-1.7-2.5c1.2-0.4,2-1.5,2-2.9c0-2-1.3-3.1-3.8-3.1h-4.9v11.8h1
				v-5.2h3.9c2,0,2.4,0.9,2.5,1.9c0,0.4,0,0.8,0,1.2c0,0.8,0,1.5,0.3,2.1l0,0.1h1.2l-0.2-0.3C263.6,80.7,263.6,80,263.6,79.2z
				 M262.8,72.7c0,2.1-1.7,2.5-2.8,2.5h-3.9v-4.7h3.9C260.8,70.5,262.8,70.7,262.8,72.7z"/>
			<path class="st1" d="M274.8,69.3c-3.4,0-5.6,2.5-5.6,6.2c0,3.6,2.3,6.2,5.6,6.2c3.3,0,5.6-2.5,5.6-6.2
				C280.4,71.8,278.1,69.3,274.8,69.3z M279.4,75.5c0,3.1-1.9,5.2-4.6,5.2c-2.7,0-4.6-2.2-4.6-5.2c0-3.1,1.9-5.2,4.6-5.2
				C277.5,70.2,279.4,72.4,279.4,75.5z"/>
			<polygon class="st1" points="287.1,80.4 287.1,69.6 286.1,69.6 286.1,81.3 293.6,81.3 293.6,80.4 			"/>
		</g>
	</g>
	<g>
		<path class="st2" d="M95.1,86.4c0,5-4.1,9.1-9.2,9.1H15.5c-5.1,0-9.2-4.1-9.2-9.1V15.7c0-5,4.1-9.1,9.2-9.1H86
			c5.1,0,9.2,4.1,9.2,9.1V86.4z"/>
		<g>
			<path class="st3" d="M50.7,46.7c-2.4,0-4.4,1.9-4.4,4.3v0c0,2.4,2,4.3,4.4,4.3c2.4,0,4.4-2,4.4-4.3c0-0.1,0-0.1,0-0.2
				C55,48.5,53.1,46.7,50.7,46.7z"/>
			<path class="st3" d="M69.1,77.4c-0.1-0.3-0.3-0.6-0.5-0.9c0,0-0.1-0.1-0.1-0.1c-0.1-0.1-0.1-0.2-0.2-0.2l0,0
				c-0.1-0.1-0.2-0.2-0.3-0.2c-0.4-0.4-1-0.6-1.6-0.7c0,0,0,0,0,0c-0.1,0-0.2,0-0.4,0c-4.4-0.5-8.6-1.8-12.1-3.8
				c-1-0.6-2-1.2-2.9-1.9c8.6-0.1,15.8-6,17.8-13.8c0.1-0.2,0.1-0.4,0.2-0.6c0-0.2,0-0.3,0-0.5c0-0.1,0-0.1,0-0.2
				c0-0.8-0.4-1.5-0.9-2.1c-0.5-0.6-1.1-1.1-1.9-1.3c-0.3-0.1-0.6-0.1-0.9-0.1c-0.3,0-0.6,0-0.9,0.1c-0.1,0-0.3,0.1-0.4,0.1
				c-0.2,0.1-0.4,0.2-0.6,0.3c-0.1,0-0.1,0.1-0.2,0.1c-0.1,0-0.1,0.1-0.2,0.1c-0.1,0-0.1,0.1-0.2,0.1c0,0-0.1,0.1-0.1,0.1
				c0,0,0,0,0,0c-0.5,0.6-0.8,1.3-0.9,1.8c0,0,0,0,0,0c0,0.1,0,0.1,0,0.2c0,0.2,0,0.3,0,0.5v0c0,0,0,0,0,0.1c-1.5,4.6-5.8,8-11,8
				c-5.2,0-9.6-3.4-11-8.1c-0.1-0.3-0.2-0.5-0.2-0.8c-0.1-0.3-0.3-0.6-0.5-0.9c0,0-0.1-0.1-0.1-0.1c-0.1-0.1-0.2-0.2-0.2-0.3l0,0
				c-0.1-0.1-0.2-0.2-0.3-0.3c-0.6-0.5-1.5-0.8-2.4-0.8c-1,0-2,0.4-2.7,1.1c0,0-0.1,0.1-0.1,0.1c0,0.1-0.1,0.1-0.1,0.1
				c-0.5,0.7-0.9,1.5-0.9,2.4v23.6c0,0.8,0.3,1.6,0.7,2.1c0,0,0,0,0,0.1c0,0,0.1,0.1,0.1,0.1c0.1,0.1,0.1,0.1,0.2,0.2c0,0,0,0,0,0
				c0.1,0.1,0.2,0.2,0.3,0.3c0.4,0.3,0.8,0.5,1.3,0.6h1.5c0.5-0.1,1-0.3,1.4-0.6c0.1,0,0.1-0.1,0.2-0.1c0.1-0.1,0.1-0.1,0.2-0.2l0,0
				c0.1-0.1,0.2-0.2,0.3-0.3c0,0,0,0,0,0c0.4-0.6,0.7-1.2,0.7-2V69C45.1,76.2,54.5,81,65.2,82c0.2,0,0.4,0,0.6,0.1h0
				c0.8,0,1.5-0.3,2.1-0.7c0.1,0,0.1-0.1,0.2-0.1c0.1-0.1,0.1-0.1,0.2-0.2l0,0c0.1-0.1,0.2-0.2,0.3-0.3c0,0,0,0,0,0
				c0.5-0.6,0.7-1.3,0.7-2.1c0-0.2,0-0.3,0-0.5C69.3,77.9,69.2,77.6,69.1,77.4z"/>
			<path class="st3" d="M75,29c-0.2-0.2-0.4-0.4-0.6-0.7c-6-6-14.4-9.8-23.6-9.8c-9.4,0-17.9,3.9-23.9,10.1c0,0-0.1,0.1-0.1,0.1
				c0,0-0.1,0.1-0.1,0.1c-0.5,0.6-0.8,1.4-0.8,2.3c0,0.8,0.3,1.6,0.8,2.2c0,0,0,0,0,0.1c0.1,0.1,0.2,0.2,0.3,0.3
				c0.1,0.1,0.3,0.2,0.4,0.3c0.6,0.4,1.3,0.7,2.1,0.7c0.9,0,1.7-0.3,2.3-0.9c0.2-0.2,0.3-0.4,0.5-0.5c4.7-4.8,11.2-7.7,18.4-7.7
				c7.3,0,13.9,3,18.6,7.9c0.1,0.1,0.2,0.2,0.2,0.2c0.1,0.1,0.2,0.2,0.4,0.3c0.6,0.4,1.3,0.7,2.1,0.7c0.8,0,1.6-0.3,2.2-0.7l0.7-0.7
				c0,0,0,0,0,0c0.5-0.6,0.8-1.4,0.8-2.2C75.7,30.4,75.4,29.6,75,29z"/>
			<path class="st3" d="M59.2,43.4c0.1,0.1,0.2,0.2,0.3,0.3c0.6,0.6,1.5,1,2.5,1c2,0,3.6-1.6,3.6-3.6c0-0.9-0.3-1.7-0.8-2.3
				c-0.1-0.1-0.2-0.2-0.2-0.2l0,0c-3.4-3.7-8.3-6-13.8-6c-5.5,0-10.4,2.3-13.8,6c-0.1,0.1-0.2,0.2-0.2,0.3c-0.5,0.6-0.8,1.4-0.8,2.3
				c0,0.8,0.3,1.6,0.7,2.2l0.7,0.7c0.6,0.4,1.3,0.7,2.1,0.7c1,0,1.9-0.4,2.5-1c0,0,0,0,0,0c0.1-0.1,0.2-0.2,0.3-0.3
				c2.1-2.3,5.1-3.7,8.5-3.7C54,39.7,57.1,41.1,59.2,43.4z"/>
		</g>
		<path class="st4" d="M68.6,52.9c0.3,0.5,0.4,1,0.5,1.5c0,0.1,0,0.1,0,0.2c0,0.2,0,0.3,0,0.5c0,0.2-0.1,0.4-0.2,0.6
			c-2,7.9-9.3,13.7-17.8,13.8c0.9,0.7,1.9,1.3,2.9,1.9c3.5,2,7.7,3.3,12.1,3.8c0.1,0,0.2,0,0.4,0c0,0,0,0,0,0
			c0.6,0.1,1.1,0.4,1.6,0.7c0.1,0.1,0.2,0.2,0.3,0.2l0,0c0.1,0.1,0.2,0.2,0.2,0.2c0,0,0.1,0.1,0.1,0.1c0.2,0.3,0.4,0.5,0.5,0.9
			c0.1,0.2,0.2,0.5,0.2,0.7c0,0.2,0,0.3,0,0.5c0,0.8-0.3,1.6-0.7,2.1c0,0,0,0,0,0c-0.1,0.1-0.2,0.2-0.3,0.3l0,0
			c-0.1,0.1-0.1,0.1-0.2,0.2c-0.1,0-0.1,0.1-0.2,0.1c-0.6,0.4-1.3,0.7-2.1,0.7h0c-0.2,0-0.4,0-0.6-0.1C54.5,81,45.1,76.2,39.3,69
			v9.8c0,0.7-0.3,1.4-0.7,2v0.1h0c-0.1,0.1-0.2,0.2-0.2,0.3l0,0c-0.1,0.1-0.1,0.1-0.2,0.2c0,0-0.1,0.1-0.2,0.1
			c-0.4,0.3-0.9,0.5-1.4,0.6h-0.6l13.8,13.4h36.1c5.2,0,9.4-4.2,9.4-9.4v-5.8L68.6,52.9z"/>
	</g>
</g>
</svg>
