<?xml version="1.0" encoding="UTF-8"?>
<svg width="318px" height="226px" viewBox="0 0 318 226" version="1.1" xmlns="http://www.w3.org/2000/svg" xmlns:xlink="http://www.w3.org/1999/xlink">
    <!-- Generator: Sketch 54.1 (76490) - https://sketchapp.com -->
    <title>Group 5</title>
    <desc>Created with Sketch.</desc>
    <g id="Website" stroke="none" stroke-width="1" fill="none" fill-rule="evenodd">
        <g id="Form-Submission-Success" transform="translate(-437.000000, -176.000000)">
            <g id="Group-5" transform="translate(437.000000, 176.000000)">
                <g id="Group-4">
                    <path d="M9.1920534,95.3776224 L132.81316,95.3776224 C137.890083,95.3776224 142.005785,99.4933249 142.005785,104.569612 L142.005785,104.755245 C142.005785,109.831532 146.120852,113.947235 151.197775,113.947235 L191.343992,113.947235 C193.668849,113.947235 195.553147,115.832168 195.553147,118.156389 C195.553147,120.48061 197.437444,122.364908 199.762301,122.364908 L307.999428,122.364908 C313.063001,122.364908 317.167896,118.260013 317.167896,113.19644 L317.167896,103.948506 C317.167896,98.885569 313.063001,94.7806739 307.999428,94.7806739 L267.35035,94.7806739 C262.286141,94.7806739 258.181246,90.675143 258.181246,85.6115702 L258.181246,85.4265734 C258.181246,80.3630006 254.076351,76.2581055 249.012778,76.2581055 L223.797266,76.2581055 L223.797266,59.3165925 C223.797266,51.9281627 217.807438,45.9389701 210.419008,45.9389701 L200.034393,45.9389701 C198.888811,45.9389701 221.466688,45.7794024 202.279784,45.7240941 C198.681564,45.7132867 195.778195,42.7933884 195.778195,39.1951685 L195.778195,39.0642085 C195.778195,35.4685315 198.685378,32.5499046 202.281055,32.5352829 L253.419644,32.3426573 C261.916783,32.3089638 262.548697,19.5168468 254.071265,18.9440559 C253.768659,18.9237127 253.463509,18.9129053 253.155181,18.9129053 L93.3033058,18.9129053 C88.2263827,18.9129053 84.1106802,23.027972 84.1106802,28.1055308 L84.1106802,67.6153846 C84.1106802,72.691672 79.9956135,76.8073744 74.9186904,76.8073744 L9.1920534,76.8073744 C4.11576605,76.8073744 6.35727911e-05,80.9230769 6.35727911e-05,85.9993643 L6.35727911e-05,86.1849968 C6.35727911e-05,91.2619199 4.11576605,95.3776224 9.1920534,95.3776224 Z" id="Stroke-1" fill="#E6ECF8" opacity="0.2"></path>
                    <path d="M283.563255,53 L291.355372,53 C294.980292,53 297.918627,55.4956842 297.918627,58.5738567 L297.918627,58.6861436 C297.918627,61.764316 294.980292,64.2600002 291.355372,64.2600002 L283.563255,64.2600002 C279.93897,64.2600002 277,61.764316 277,58.6861436 L277,58.5738567 C277,55.4956842 279.93897,53 283.563255,53 Z" id="Stroke-3" stroke="#0bd8a2" stroke-width="4" stroke-linecap="round" stroke-linejoin="round"></path>
                    <path d="M25,152.106167 C25,150.94342 25.9427845,150 27.1061666,150 C28.2689129,150 29.2116974,150.94342 29.2116974,152.106167 C29.2116974,153.268913 28.2689129,154.212333 27.1061666,154.212333 C25.9427845,154.212333 25,153.268913 25,152.106167 Z" id="Stroke-5" stroke="#0bd8a2" stroke-width="4" stroke-linecap="round" stroke-linejoin="round"></path>
                    <g id="Group-3" transform="translate(59.000000, 34.000000)" stroke="#0bd8a2" stroke-linecap="round" stroke-linejoin="round" stroke-width="4">
                        <path d="M4.7221869,9.60055096 L4.7221869,0.193049375" id="Stroke-7"></path>
                        <path d="M9.42587413,4.89648231 L0.0183725366,4.89648231" id="Stroke-9"></path>
                    </g>
                    <path d="M29.9606484,106.674825 L120.399301,106.674825 C126.322378,106.674825 131.124031,111.476478 131.124031,117.399555 L131.124031,132.68309 C131.124031,138.606802 135.925683,143.407819 141.84876,143.407819 L247.136109,143.407819 C253.059186,143.407819 257.860839,148.210108 257.860839,154.132549 C257.860839,160.056262 253.059186,164.857279 247.136109,164.857279 L58.5684043,164.857279 C52.6453274,164.857279 47.8436745,160.056262 47.8436745,154.132549 L47.8436745,143.439606 C47.8436745,137.516529 43.0420216,132.714876 37.1189447,132.714876 L29.9606484,132.714876 C24.0375715,132.714876 19.2359186,127.912587 19.2359186,121.990146 L19.2359186,117.399555 C19.2359186,111.476478 24.0375715,106.674825 29.9606484,106.674825 Z" id="Stroke-11" fill="#E6ECF8" opacity="0.2"></path>
                    <path d="M207.581373,177.024158 L237.581373,177.024158" id="Stroke-13" stroke="#0bd8a2" stroke-width="4" stroke-linecap="round" stroke-linejoin="round"></path>
                    <path d="M135.253117,33.4568281 L217.315449,33.4507795 C238.188565,33.449241 255.155517,50.2841023 255.317111,71.1565932 L255.711117,122.048828 L152.203117,120.918828 L135.253117,33.4568281 Z" id="Rectangle-26" fill="#E6ECF8"></path>
                    <path d="M161.090391,120.715781 L176.458391,120.715781 C176.458391,167.859146 176.458391,194.293495 176.458391,200.018828 C176.458391,205.744161 182.585992,208.085629 194.841195,207.043232 L194.841195,222.390117 L142.712,222.390117 L142.712,207.043232 C152.713187,206.761831 158.111585,204.420363 158.907195,200.018828 C159.702805,195.617293 160.430537,169.182944 161.090391,120.715781 Z" id="Rectangle-26" fill="#E6ECF8"></path>
                    <path d="M85.24,119.848 L152.272,119.848 L152.272,67.348 C152.272,48.8376243 137.266376,33.832 118.756,33.832 C100.245624,33.832 85.24,48.8376243 85.24,67.348 L85.24,119.848 Z" id="Rectangle-26" stroke="#1F2636" stroke-width="8" fill="#0bd8a2"></path>
                    <path d="M198.15771,67.8 C196.074743,67.8 194.391043,66.1163 194.391043,64.0333333 L194.391043,3.76666667 C194.391043,1.6837 196.074743,0 198.15771,0 C200.240677,0 201.924377,1.6837 201.924377,3.76666667 L201.924377,64.0333333 C201.924377,66.1163 200.240677,67.8 198.15771,67.8" id="Shape" fill="#1F2636" fill-rule="nonzero"></path>
                    <path d="M145.424377,218.466667 L190.624377,218.466667 L190.624377,210.933333 L185.497943,210.933333 C177.938243,210.933333 171.791043,204.786133 171.791043,197.226433 L171.791043,124.3 L164.25771,124.3 L164.25771,197.226433 C164.25771,204.786133 158.11051,210.933333 150.55081,210.933333 L145.424377,210.933333 L145.424377,218.466667 Z M194.391043,226 L141.65771,226 C139.574743,226 137.891043,224.3163 137.891043,222.233333 L137.891043,207.166667 C137.891043,205.0837 139.574743,203.4 141.65771,203.4 L150.55081,203.4 C153.955877,203.4 156.724377,200.6315 156.724377,197.226433 L156.724377,120.533333 C156.724377,118.450367 158.408077,116.766667 160.491043,116.766667 L175.55771,116.766667 C177.640677,116.766667 179.324377,118.450367 179.324377,120.533333 L179.324377,197.226433 C179.324377,200.6315 182.092877,203.4 185.497943,203.4 L194.391043,203.4 C196.47401,203.4 198.15771,205.0837 198.15771,207.166667 L198.15771,222.233333 C198.15771,224.3163 196.47401,226 194.391043,226 L194.391043,226 Z" id="Shape" fill="#1F2636" fill-rule="nonzero"></path>
                    <path d="M254.65771,109.233333 L235.824377,109.233333 C233.74141,109.233333 232.05771,107.549633 232.05771,105.466667 C232.05771,103.3837 233.74141,101.7 235.824377,101.7 L254.65771,101.7 C256.740677,101.7 258.424377,103.3837 258.424377,105.466667 C258.424377,107.549633 256.740677,109.233333 254.65771,109.233333" id="Shape" fill="#1F2636" fill-rule="nonzero"></path>
                    <path d="M154.117496,116.465333 L251.192,116.465333 L251.192,67.4986667 C251.192,50.8839 237.673433,37.3653333 221.058667,37.3653333 L141.936067,37.3653333 C151.092833,44.2432667 153.552496,55.7271271 153.552496,68.0365937 L154.117496,116.465333 Z M153.258667,123.998667 C151.1757,123.998667 149.492,122.314967 149.492,120.232 L149.492,67.4986667 C149.492,50.8839 135.973433,36.7702441 119.358667,36.7702441 C117.2757,36.7702441 115.592,35.6816333 115.592,33.5986667 C115.592,31.5157 117.2757,29.832 119.358667,29.832 L221.058667,29.832 C241.828067,29.832 258.725333,46.7292667 258.725333,67.4986667 L258.725333,120.232 C258.725333,122.314967 257.041633,123.998667 254.958667,123.998667 L153.258667,123.998667 Z" id="Shape" fill="#1F2636" fill-rule="nonzero"></path>
                    <path d="M198.15771,56.5 C194.003077,56.5 190.624377,59.8787 190.624377,64.0333333 C190.624377,68.1879667 194.003077,71.5666667 198.15771,71.5666667 C202.312343,71.5666667 205.691043,68.1879667 205.691043,64.0333333 C205.691043,59.8787 202.312343,56.5 198.15771,56.5 M198.15771,79.1 C189.848443,79.1 183.091043,72.3426 183.091043,64.0333333 C183.091043,55.7240667 189.848443,48.9666667 198.15771,48.9666667 C206.466977,48.9666667 213.224377,55.7240667 213.224377,64.0333333 C213.224377,72.3426 206.466977,79.1 198.15771,79.1" id="Shape" fill="#1F2636" fill-rule="nonzero"></path>
                    <path d="M48.7666667,120.233333 L116.566667,120.233333 C116.716637,120.233333 116.833333,120.116637 116.833333,119.966667 L116.833333,74.7666667 C116.833333,74.6166966 116.716637,74.5 116.566667,74.5 L48.7666667,74.5 C48.6166966,74.5 48.5,74.6166966 48.5,74.7666667 L48.5,119.966667 C48.5,120.116637 48.6166966,120.233333 48.7666667,120.233333 Z" id="Shape" stroke="#1F2636" stroke-width="7" fill="#FFFFFF" fill-rule="nonzero"></path>
                    <path d="M82.8317164,101.06576 C82.1788017,101.06576 81.522504,100.876314 80.9541637,100.49742 L50.5073619,80.1995524 C48.951192,79.1609781 48.5317028,77.0635318 49.570277,75.5073619 C50.6054683,73.951192 52.6995316,73.5317028 54.2624675,74.570277 L82.8317164,93.616443 L111.400965,74.570277 C112.957135,73.5317028 115.057965,73.951192 116.093156,75.5073619 C117.13173,77.0635318 116.712241,79.1609781 115.156071,80.1995524 L84.7092692,100.49742 C84.1409289,100.876314 83.4846312,101.06576 82.8317164,101.06576" id="Shape" fill="#1F2636" fill-rule="nonzero"></path>
                    <path d="M30.76516,116.616 L179.62684,116.616 C181.70628,116.616 183.392,118.30172 183.392,120.38116 L183.392,120.38116 C183.392,122.4606 181.70628,124.14632 179.62684,124.14632 L30.76516,124.14632 C28.6857195,124.14632 27,122.4606 27,120.38116 L27,120.38116 C27,118.30172 28.6857195,116.616 30.76516,116.616 Z" id="Rectangle-24" fill="#1F2636"></path>
                    <g id="Group-2" transform="translate(92.992000, 218.768000)" fill="#1F2636">
                        <path d="M34.352,0 L146.448,-2.22044605e-15 C148.445062,-2.58730032e-15 150.064,1.61893834 150.064,3.616 L150.064,3.616 C150.064,5.61306166 148.445062,7.232 146.448,7.232 L34.352,7.232 C32.3549383,7.232 30.736,5.61306166 30.736,3.616 L30.736,3.616 C30.736,1.61893834 32.3549383,3.66854275e-16 34.352,0 Z" id="Rectangle-24"></path>
                        <rect id="Rectangle-24" x="0" y="0" width="26.216" height="7.232" rx="3.616"></rect>
                    </g>
                    <path d="M198.24,3.5 C197.963858,3.5 197.74,3.72385763 197.74,4 L197.74,18.6 C197.74,18.8761424 197.963858,19.1 198.24,19.1 L227.909678,19.1 C228.185821,19.1 228.409678,18.8761424 228.409678,18.6 L228.409678,4 C228.409678,3.72385763 228.185821,3.5 227.909678,3.5 L198.24,3.5 Z" id="Rectangle-25" stroke="#1F2636" stroke-width="7" fill="#0bd8a2"></path>
                </g>
            </g>
        </g>
    </g>
</svg>
